HIERARCHY
ROOT Hips
{
	OFFSET 0 0 0
	CHANNELS 6 Xposition Yposition Zposition Yrotation Xrotation Zrotation
	JOINT Spine
	{
		OFFSET -0 7.69132 -2.45161
		CHANNELS 3 Yrotation Xrotation Zrotation
		JOINT Spine1
		{
			OFFSET -0 7.43975 0
			CHANNELS 3 Yrotation Xrotation Zrotation
			JOINT Spine2
			{
				OFFSET -0 7.43975 0
				CHANNELS 3 Yrotation Xrotation Zrotation
				JOINT Spine3
				{
					OFFSET -0 7.43975 0
					CHANNELS 3 Yrotation Xrotation Zrotation
					JOINT Neck
					{
						OFFSET -0 13.9329 3.45161
						CHANNELS 3 Yrotation Xrotation Zrotation
						JOINT Head
						{
							OFFSET -0 9.61415 0
							CHANNELS 3 Yrotation Xrotation Zrotation
							End Site
							{
								OFFSET 0 15 0
							}
						}
					}
					JOINT LeftShoulder
					{
						OFFSET 1.60236 2.19729 3.20472
						CHANNELS 3 Yrotation Xrotation Zrotation
						JOINT LeftArm
						{
							OFFSET 17.7845 0 0
							CHANNELS 3 Yrotation Xrotation Zrotation
							JOINT LeftForeArm
							{
								OFFSET 22.4513 0 0
								CHANNELS 3 Yrotation Xrotation Zrotation
								JOINT LeftHand
								{
									OFFSET 20.5515 0 0
									CHANNELS 3 Yrotation Xrotation Zrotation
									JOINT LeftHandThumb1
									{
										OFFSET 4.91385 0 2.72801
										CHANNELS 3 Yrotation Xrotation Zrotation
										JOINT LeftHandThumb2
										{
											OFFSET 3 0 1
											CHANNELS 3 Yrotation Xrotation Zrotation
											JOINT LeftHandThumb3
											{
												OFFSET 2.1 0 0
												CHANNELS 3 Yrotation Xrotation Zrotation
												JOINT LeftHandThumb4
												{
													OFFSET 1.305 0 0
													CHANNELS 3 Yrotation Xrotation Zrotation
													End Site
													{
														OFFSET -0 0 0
													}
												}
											}
										}
									}
									JOINT LeftHandIndex1
									{
										OFFSET 9.07627 0 3.52715
										CHANNELS 3 Yrotation Xrotation Zrotation
										JOINT LeftHandIndex2
										{
											OFFSET 3.5 0 0
											CHANNELS 3 Yrotation Xrotation Zrotation
											JOINT LeftHandIndex3
											{
												OFFSET 2.45 0 0
												CHANNELS 3 Yrotation Xrotation Zrotation
												JOINT LeftHandIndex4
												{
													OFFSET 1.5225 0 0
													CHANNELS 3 Yrotation Xrotation Zrotation
													End Site
													{
														OFFSET -0 0 0
													}
												}
											}
										}
									}
									JOINT LeftHandMiddle1
									{
										OFFSET 9.21121 0 1.12806
										CHANNELS 3 Yrotation Xrotation Zrotation
										JOINT LeftHandMiddle2
										{
											OFFSET 4.6 0 0
											CHANNELS 3 Yrotation Xrotation Zrotation
											JOINT LeftHandMiddle3
											{
												OFFSET 3.22 0 0
												CHANNELS 3 Yrotation Xrotation Zrotation
												JOINT LeftHandMiddle4
												{
													OFFSET 2.001 0 0
													CHANNELS 3 Yrotation Xrotation Zrotation
													End Site
													{
														OFFSET -0 0 0
													}
												}
											}
										}
									}
									JOINT LeftHandRing1
									{
										OFFSET 9.04616 0 -1.27103
										CHANNELS 3 Yrotation Xrotation Zrotation
										JOINT LeftHandRing2
										{
											OFFSET 3.75 0 0
											CHANNELS 3 Yrotation Xrotation Zrotation
											JOINT LeftHandRing3
											{
												OFFSET 2.625 0 0
												CHANNELS 3 Yrotation Xrotation Zrotation
												JOINT LeftHandRing4
												{
													OFFSET 1.63125 0 0
													CHANNELS 3 Yrotation Xrotation Zrotation
													End Site
													{
														OFFSET -0 0 0
													}
												}
											}
										}
									}
									JOINT LeftHandPinky1
									{
										OFFSET 8.58111 0 -3.67011
										CHANNELS 3 Yrotation Xrotation Zrotation
										JOINT LeftHandPinky2
										{
											OFFSET 2.875 0 0
											CHANNELS 3 Yrotation Xrotation Zrotation
											JOINT LeftHandPinky3
											{
												OFFSET 2.0125 0 0
												CHANNELS 3 Yrotation Xrotation Zrotation
												JOINT LeftHandPinky4
												{
													OFFSET 1.25062 0 0
													CHANNELS 3 Yrotation Xrotation Zrotation
													End Site
													{
														OFFSET -0 0 0
													}
												}
											}
										}
									}
								}
							}
						}
					}
					JOINT RightShoulder
					{
						OFFSET -1.60236 2.19729 3.20472
						CHANNELS 3 Yrotation Xrotation Zrotation
						JOINT RightArm
						{
							OFFSET -17.7845 0 0
							CHANNELS 3 Yrotation Xrotation Zrotation
							JOINT RightForeArm
							{
								OFFSET -22.4513 0 0
								CHANNELS 3 Yrotation Xrotation Zrotation
								JOINT RightHand
								{
									OFFSET -20.5515 0 0
									CHANNELS 3 Yrotation Xrotation Zrotation
									JOINT RightHandThumb1
									{
										OFFSET -4.4694 0 0.364316
										CHANNELS 3 Yrotation Xrotation Zrotation
										JOINT RightHandThumb2
										{
											OFFSET -3 0 1
											CHANNELS 3 Yrotation Xrotation Zrotation
											JOINT RightHandThumb3
											{
												OFFSET -2.1 0 0
												CHANNELS 3 Yrotation Xrotation Zrotation
												JOINT RightHandThumb4
												{
													OFFSET -1.305 0 0
													CHANNELS 3 Yrotation Xrotation Zrotation
													End Site
													{
														OFFSET -0 0 0
													}
												}
											}
										}
									}
									JOINT RightHandIndex1
									{
										OFFSET -7.92682 0 1.55071
										CHANNELS 3 Yrotation Xrotation Zrotation
										JOINT RightHandIndex2
										{
											OFFSET -3.5 0 0
											CHANNELS 3 Yrotation Xrotation Zrotation
											JOINT RightHandIndex3
											{
												OFFSET -2.45 0 0
												CHANNELS 3 Yrotation Xrotation Zrotation
												JOINT RightHandIndex4
												{
													OFFSET -1.5225 0 0
													CHANNELS 3 Yrotation Xrotation Zrotation
													End Site
													{
														OFFSET -0 0 0
													}
												}
											}
										}
									}
									JOINT RightHandMiddle1
									{
										OFFSET -8.23226 0 0.386205
										CHANNELS 3 Yrotation Xrotation Zrotation
										JOINT RightHandMiddle2
										{
											OFFSET -4.6 0 0
											CHANNELS 3 Yrotation Xrotation Zrotation
											JOINT RightHandMiddle3
											{
												OFFSET -3.22 0 0
												CHANNELS 3 Yrotation Xrotation Zrotation
												JOINT RightHandMiddle4
												{
													OFFSET -2.001 0 0
													CHANNELS 3 Yrotation Xrotation Zrotation
													End Site
													{
														OFFSET -0 0 0
													}
												}
											}
										}
									}
									JOINT RightHandRing1
									{
										OFFSET -8.23771 0 -0.778302
										CHANNELS 3 Yrotation Xrotation Zrotation
										JOINT RightHandRing2
										{
											OFFSET -3.75 0 0
											CHANNELS 3 Yrotation Xrotation Zrotation
											JOINT RightHandRing3
											{
												OFFSET -2.625 0 0
												CHANNELS 3 Yrotation Xrotation Zrotation
												JOINT RightHandRing4
												{
													OFFSET -1.63125 0 0
													CHANNELS 3 Yrotation Xrotation Zrotation
													End Site
													{
														OFFSET -0 0 0
													}
												}
											}
										}
									}
									JOINT RightHandPinky1
									{
										OFFSET -7.94315 0 -1.94281
										CHANNELS 3 Yrotation Xrotation Zrotation
										JOINT RightHandPinky2
										{
											OFFSET -2.875 0 0
											CHANNELS 3 Yrotation Xrotation Zrotation
											JOINT RightHandPinky3
											{
												OFFSET -2.0125 0 0
												CHANNELS 3 Yrotation Xrotation Zrotation
												JOINT RightHandPinky4
												{
													OFFSET -1.25062 0 0
													CHANNELS 3 Yrotation Xrotation Zrotation
													End Site
													{
														OFFSET -0 0 0
													}
												}
											}
										}
									}
								}
							}
						}
					}
				}
			}
		}
	}
	JOINT LeftUpLeg
	{
		OFFSET 9.61415 -3.20472 3
		CHANNELS 3 Yrotation Xrotation Zrotation
		JOINT LeftLeg
		{
			OFFSET -0 -42.2921 2.2433
			CHANNELS 3 Yrotation Xrotation Zrotation
			JOINT LeftFoot
			{
				OFFSET -0 -34.6503 -2.2433
				CHANNELS 3 Yrotation Xrotation Zrotation
				JOINT LeftToeBase
				{
					OFFSET -0 -8.30332 8.5187
					CHANNELS 3 Yrotation Xrotation Zrotation
					End Site
					{
						OFFSET 0 0 5
					}
				}
			}
		}
	}
	JOINT RightUpLeg
	{
		OFFSET -9.61415 -3.20472 3
		CHANNELS 3 Yrotation Xrotation Zrotation
		JOINT RightLeg
		{
			OFFSET -0 -42.2921 2.2433
			CHANNELS 3 Yrotation Xrotation Zrotation
			JOINT RightFoot
			{
				OFFSET -0 -34.6503 -2.2433
				CHANNELS 3 Yrotation Xrotation Zrotation
				JOINT RightToeBase
				{
					OFFSET -0 -8.30332 8.5187
					CHANNELS 3 Yrotation Xrotation Zrotation
					End Site
					{
						OFFSET 0 0 5
					}
				}
			}
		}
	}
}
MOTION
Frames: 5
Frame Time: 0.0047619
24.175772 94.613745 -1.844543 -50.785543 14.905424 -18.283200 7.751126 5.230590 8.319141 10.191146 3.856915 5.656457 4.677258 3.248339 2.591641 3.616566 2.541300 0.598467 30.420716 -6.699653 -14.125643 11.505582 -10.584283 1.539279 20.832351 6.799091 1.784181 -58.042432 37.829682 -33.359273 -36.002603 -1.076249 -9.543850 76.279871 68.569166 67.002001 2.166009 -11.574469 -13.274520 2.733078 -13.255976 -15.348742 -36.600472 21.903842 7.488654 -0.000222 0.000831 11.040776 -0.000222 0.000831 11.040776 -0.000313 0.000607 8.832613 -0.000199 0.000281 4.416319 -0.000202 0.000803 0.378831 -0.000202 0.000803 0.378831 -0.000167 0.000625 0.303055 -0.000082 0.000318 0.151528 -0.000166 0.000659 11.557069 -0.000166 0.000659 11.557069 -0.000242 0.000489 9.245646 -0.000147 0.000222 4.622824 -0.000003 0.000007 12.500000 -0.000003 0.000007 12.500000 0.000005 -0.000001 9.999997 -0.000005 0.000003 4.999997 -165.014174 -0.023828 -179.818837 4.149674 -1.442684 -16.767067 11.702833 -18.264923 5.620954 16.497974 -30.002591 -10.568791 -53.326383 -54.223334 31.896804 11.146736 -16.313735 -9.824984 13.140363 -18.575193 -11.644841 -36.615858 9.975199 13.429254 -0.000008 0.000007 -12.500001 -0.000008 0.000007 -12.500001 0.000013 -0.000004 -9.999997 -0.000003 0.000005 -5.000005 -0.000296 -0.000270 6.568976 -0.000296 -0.000270 6.568976 -0.000212 -0.000247 5.255186 -0.000088 -0.000123 2.627583 -0.000008 0.000007 -12.500001 -0.000008 0.000007 -12.500001 0.000013 -0.000004 -9.999997 -0.000003 0.000004 -5.000007 0.000851 0.000805 -4.348989 0.000851 0.000805 -4.348989 0.000746 0.000582 -3.479190 0.000394 0.000259 -1.739595 2.166009 -11.574469 -13.274520 22.363418 -19.976606 2.551311 0.000000 -2.271125 0.000000 2.197976 15.094935 -2.393938 0.000000 -8.673224 0.000000 -98.659837 -52.372988 75.303560 180.000000 79.004622 180.000000 -21.587424 -16.247766 -9.479569 0.000000 -20.409267 0.000000
24.199963 94.626013 -1.840091 -51.073924 14.991870 -18.289432 7.861783 5.182530 8.268682 10.244426 3.790996 5.609809 4.724852 3.236248 2.617435 3.632008 2.548318 0.580005 30.457717 -6.693975 -14.162599 11.520935 -10.514567 1.577763 20.914742 6.763341 1.720453 -58.145056 37.865223 -33.429754 -36.009864 -1.084672 -9.626641 76.477959 68.476161 67.178237 2.166009 -11.574469 -13.274520 2.733078 -13.255976 -15.348742 -36.600472 21.903842 7.488654 -0.000222 0.000831 11.040776 -0.000222 0.000831 11.040776 -0.000313 0.000607 8.832613 -0.000199 0.000281 4.416319 -0.000202 0.000803 0.378831 -0.000202 0.000803 0.378831 -0.000167 0.000625 0.303055 -0.000082 0.000318 0.151528 -0.000166 0.000659 11.557069 -0.000166 0.000659 11.557069 -0.000242 0.000489 9.245646 -0.000147 0.000222 4.622824 -0.000003 0.000007 12.500000 -0.000003 0.000007 12.500000 0.000005 -0.000001 9.999997 -0.000005 0.000003 4.999997 -165.014174 -0.023828 -179.818837 4.339968 -1.504903 -16.854902 11.595313 -18.446256 5.586870 16.407398 -29.985009 -10.529432 -53.188810 -54.001532 31.675968 11.146736 -16.313735 -9.824984 13.140363 -18.575193 -11.644841 -36.615858 9.975199 13.429254 -0.000008 0.000007 -12.500001 -0.000008 0.000007 -12.500001 0.000013 -0.000004 -9.999997 -0.000003 0.000005 -5.000005 -0.000296 -0.000270 6.568976 -0.000296 -0.000270 6.568976 -0.000212 -0.000247 5.255186 -0.000088 -0.000123 2.627583 -0.000008 0.000007 -12.500001 -0.000008 0.000007 -12.500001 0.000013 -0.000004 -9.999997 -0.000003 0.000004 -5.000007 0.000851 0.000805 -4.348989 0.000851 0.000805 -4.348989 0.000746 0.000582 -3.479190 0.000394 0.000259 -1.739595 2.166009 -11.574469 -13.274520 22.740511 -20.069414 2.389848 0.000000 -2.330257 0.000000 2.074821 15.139817 -2.426027 0.000000 -8.695662 0.000000 -99.552366 -52.300712 76.598653 180.000000 78.920185 180.000000 -21.711446 -16.351995 -9.491447 0.000000 -20.399461 0.000000
24.225974 94.637732 -1.835541 -51.343861 15.091013 -18.273227 7.960070 5.110327 8.201397 10.289319 3.757308 5.584334 4.762796 3.212235 2.585917 3.652436 2.547642 0.603233 30.491903 -6.654351 -14.212471 11.527726 -10.500799 1.625624 20.984615 6.692374 1.647647 -58.236431 37.890170 -33.548791 -36.065289 -1.043811 -9.657914 76.287001 68.612616 67.038436 2.241364 -11.464512 -13.209259 2.816500 -13.128476 -15.273703 -36.625382 22.281329 7.360174 -0.000066 0.000238 10.956951 -0.000066 0.000238 10.956951 -0.000092 0.000178 8.765575 -0.000057 0.000088 4.382781 -0.000059 0.000208 0.336103 -0.000059 0.000208 0.336103 -0.000039 0.000167 0.268886 -0.000026 0.000082 0.134444 -0.000050 0.000185 11.493394 -0.000050 0.000185 11.493394 -0.000070 0.000143 9.194709 -0.000042 0.000066 4.597348 -0.000007 0.000001 12.499994 -0.000007 0.000001 12.499994 0.000004 0.000001 9.999993 0.000001 0.000005 5.000003 -165.014267 -0.023827 -179.818838 4.541137 -1.546219 -16.948752 11.453854 -18.572749 5.567471 16.380877 -30.086550 -10.558375 -51.484881 -55.163244 31.856202 11.435975 -15.886475 -9.852064 13.464026 -18.079185 -11.670758 -37.040643 9.660289 13.572311 0.000290 0.000585 -12.355860 0.000290 0.000585 -12.355860 0.000328 0.000406 -9.884675 0.000193 0.000172 -4.942340 -0.002599 -0.005175 5.312512 -0.002599 -0.005175 5.312512 -0.001667 -0.004330 4.250019 -0.000673 -0.002215 2.124999 0.000000 -0.000000 -12.500010 0.000000 -0.000000 -12.500010 0.000003 -0.000006 -9.999991 -0.000002 0.000005 -5.000005 -0.000605 -0.001414 -4.744030 -0.000605 -0.001414 -4.744030 -0.000571 -0.001089 -3.795209 -0.000318 -0.000529 -1.897607 2.241364 -11.464512 -13.209259 23.111534 -20.174993 2.204627 0.000000 -2.376845 0.000000 1.967746 15.222652 -2.541952 0.000000 -8.662155 0.000000 -100.419487 -52.266054 77.871861 180.000000 78.827327 180.000000 -21.829846 -16.491679 -9.530366 0.000000 -20.385623 0.000000
24.256979 94.653699 -1.840001 -51.661685 15.193285 -18.339187 8.100020 5.047883 8.211626 10.368785 3.683049 5.599732 4.787703 3.203235 2.536080 3.656745 2.554399 0.553010 30.535521 -6.651773 -14.234845 11.543684 -10.454496 1.670078 21.064955 6.641265 1.606806 -58.291693 37.900777 -33.602016 -36.138491 -1.051342 -9.711725 76.584685 68.569376 67.255570 2.241364 -11.464512 -13.209259 2.816500 -13.128476 -15.273703 -36.625382 22.281329 7.360174 -0.000066 0.000238 10.956951 -0.000066 0.000238 10.956951 -0.000092 0.000178 8.765575 -0.000057 0.000088 4.382781 -0.000059 0.000208 0.336103 -0.000059 0.000208 0.336103 -0.000039 0.000167 0.268886 -0.000026 0.000082 0.134444 -0.000050 0.000185 11.493394 -0.000050 0.000185 11.493394 -0.000070 0.000143 9.194709 -0.000042 0.000066 4.597348 -0.000007 0.000001 12.499994 -0.000007 0.000001 12.499994 0.000004 0.000001 9.999993 0.000001 0.000005 5.000003 -165.014267 -0.023827 -179.818838 4.769045 -1.624722 -17.014164 11.288799 -18.675403 5.540313 16.302541 -30.070420 -10.543784 -51.434303 -54.953536 31.751126 11.435975 -15.886475 -9.852064 13.464026 -18.079185 -11.670758 -37.040643 9.660289 13.572311 0.000290 0.000585 -12.355860 0.000290 0.000585 -12.355860 0.000328 0.000406 -9.884675 0.000193 0.000172 -4.942340 -0.002599 -0.005175 5.312512 -0.002599 -0.005175 5.312512 -0.001667 -0.004330 4.250019 -0.000673 -0.002215 2.124999 0.000000 -0.000000 -12.500010 0.000000 -0.000000 -12.500010 0.000003 -0.000006 -9.999991 -0.000002 0.000005 -5.000005 -0.000605 -0.001414 -4.744030 -0.000605 -0.001414 -4.744030 -0.000571 -0.001089 -3.795209 -0.000318 -0.000529 -1.897607 2.241364 -11.464512 -13.209259 23.456679 -20.337695 2.104783 0.000000 -2.391012 0.000000 1.847207 15.220073 -2.616672 0.000000 -8.670129 0.000000 -100.750833 -51.763625 78.779688 180.000000 79.036654 180.000000 -22.390991 -18.112523 -10.439625 0.000000 -19.194898 0.000000
24.272113 94.657880 -1.837016 -51.882444 15.282923 -18.324274 8.192457 4.976030 8.163878 10.397002 3.649057 5.543520 4.832644 3.166281 2.526779 3.678399 2.576574 0.578830 30.556888 -6.615061 -14.263679 11.547374 -10.443556 1.711512 21.111122 6.600592 1.555146 -58.354952 37.901533 -33.675397 -36.190832 -1.098340 -9.685708 76.954174 68.611818 67.554427 2.241364 -11.464512 -13.209259 2.816500 -13.128476 -15.273703 -36.625382 22.281329 7.360174 -0.000066 0.000238 10.956951 -0.000066 0.000238 10.956951 -0.000092 0.000178 8.765575 -0.000057 0.000088 4.382781 -0.000059 0.000208 0.336103 -0.000059 0.000208 0.336103 -0.000039 0.000167 0.268886 -0.000026 0.000082 0.134444 -0.000050 0.000185 11.493394 -0.000050 0.000185 11.493394 -0.000070 0.000143 9.194709 -0.000042 0.000066 4.597348 -0.000007 0.000001 12.499994 -0.000007 0.000001 12.499994 0.000004 0.000001 9.999993 0.000001 0.000005 5.000003 -165.014267 -0.023827 -179.818838 4.953407 -1.663471 -17.075375 11.139033 -18.846971 5.474407 16.249770 -30.098317 -10.466600 -51.253772 -54.735998 31.463265 11.435975 -15.886475 -9.852064 13.464026 -18.079185 -11.670758 -37.040643 9.660289 13.572311 0.000290 0.000585 -12.355860 0.000290 0.000585 -12.355860 0.000328 0.000406 -9.884675 0.000193 0.000172 -4.942340 -0.002599 -0.005175 5.312512 -0.002599 -0.005175 5.312512 -0.001667 -0.004330 4.250019 -0.000673 -0.002215 2.124999 0.000000 -0.000000 -12.500010 0.000000 -0.000000 -12.500010 0.000003 -0.000006 -9.999991 -0.000002 0.000005 -5.000005 -0.000605 -0.001414 -4.744030 -0.000605 -0.001414 -4.744030 -0.000571 -0.001089 -3.795209 -0.000318 -0.000529 -1.897607 2.241364 -11.464512 -13.209259 23.805879 -20.433696 1.935662 0.000000 -2.394585 0.000000 1.672723 15.185503 -2.703320 0.000000 -8.577718 0.000000 -101.586725 -51.720274 79.951995 180.000000 78.914168 180.000000 -22.458478 -18.112233 -10.364084 0.000000 -19.269731 0.000000
